<?xml version="1.0" encoding="utf-8"?>
<!-- Generator: Adobe Illustrator 19.0.1, SVG Export Plug-In . SVG Version: 6.00 Build 0)  -->
<!DOCTYPE svg PUBLIC "-//W3C//DTD SVG 1.1//EN" "http://www.w3.org/Graphics/SVG/1.1/DTD/svg11.dtd">
<svg version="1.1" id="Layer_1" xmlns="http://www.w3.org/2000/svg" xmlns:xlink="http://www.w3.org/1999/xlink" x="0px" y="0px"
	 viewBox="0 0 256 182" style="enable-background:new 0 0 256 182;" xml:space="preserve">
<style type="text/css">
	.st0{fill:#1592D1;}
	.st1{fill:#003F6C;}
	.st2{fill:#034C7A;}
</style>
<g>
	<path class="st0" d="M1.3,136.2V116h7.8v20c0,5.8,2.9,8.7,7.6,8.7s7.6-2.9,7.6-8.5V116h7.8v20c0,10.7-6,16-15.5,16
		S1.3,146.6,1.3,136.2"/>
	<path class="st0" d="M38.3,146.2l4.6-5.5c3.2,2.6,6.5,4.3,10.6,4.3c3.2,0,5.1-1.3,5.1-3.3v-0.1c0-2-1.2-3-7.1-4.5
		c-7.1-1.8-11.7-3.8-11.7-10.8v-0.1c0-6.4,5.2-10.7,12.4-10.7c5.2,0,9.6,1.6,13.1,4.5l-4,5.9c-3.1-2.2-6.2-3.5-9.2-3.5
		c-3,0-4.6,1.4-4.6,3.1v0.1c0,2.3,1.5,3.1,7.6,4.7c7.2,1.9,11.2,4.4,11.2,10.6v0.1c0,7-5.4,11-13,11C48,151.9,42.6,150,38.3,146.2"
		/>
	<path class="st1" d="M83.7,133.8v-0.1c0-10.1,7.6-18.3,18.5-18.3c6.7,0,10.7,2.2,14,5.5l-5,5.7c-2.7-2.5-5.5-4-9-4
		c-6,0-10.3,5-10.3,11v0.1c0,6.1,4.2,11.1,10.3,11.1c4,0,6.5-1.6,9.3-4.1l5,5c-3.6,3.9-7.7,6.3-14.5,6.3
		C91.4,152,83.7,144,83.7,133.8"/>
	<polygon class="st1" points="122.9,116 130.6,116 130.6,130 145,130 145,116 152.8,116 152.8,151.4 145,151.4 145,137.2 
		130.6,137.2 130.6,151.4 122.9,151.4 	"/>
	<polygon class="st1" points="161.4,116 188.1,116 188.1,122.9 169.2,122.9 169.2,130.1 185.8,130.1 185.8,137 169.2,137 
		169.2,144.5 188.4,144.5 188.4,151.4 161.4,151.4 	"/>
	<path class="st1" d="M193.8,146.2l4.6-5.5c3.2,2.6,6.5,4.3,10.6,4.3c3.2,0,5.1-1.3,5.1-3.3v-0.1c0-2-1.2-3-7.1-4.5
		c-7.1-1.8-11.7-3.8-11.7-10.8v-0.1c0-6.4,5.2-10.7,12.4-10.7c5.2,0,9.6,1.6,13.1,4.5l-4,5.9c-3.1-2.2-6.2-3.5-9.2-3.5
		s-4.6,1.4-4.6,3.1v0.1c0,2.3,1.5,3.1,7.6,4.7c7.2,1.9,11.2,4.4,11.2,10.6v0.1c0,7-5.4,11-13,11C203.4,151.9,198,150,193.8,146.2"/>
	<path class="st1" d="M226.7,146.2l4.6-5.5c3.2,2.6,6.5,4.3,10.6,4.3c3.2,0,5.1-1.3,5.1-3.3v-0.1c0-2-1.2-3-7.1-4.5
		c-7.1-1.8-11.7-3.8-11.7-10.8v-0.1c0-6.4,5.2-10.7,12.4-10.7c5.2,0,9.6,1.6,13.1,4.5l-4,5.9c-3.1-2.2-6.2-3.5-9.2-3.5
		s-4.6,1.4-4.6,3.1v0.1c0,2.3,1.5,3.1,7.6,4.7c7.2,1.9,11.2,4.4,11.2,10.6v0.1c0,7-5.4,11-13,11C236.3,151.9,230.9,150,226.7,146.2"
		/>
	<polygon class="st0" points="38.6,166.9 38.6,180.7 40.4,180.7 40.4,174.9 47.7,174.9 47.7,173.2 40.4,173.2 40.4,168.6 
		48.6,168.6 48.6,166.9 	"/>
	<polygon class="st0" points="56.8,166.9 56.8,180.7 67,180.7 67,179 58.6,179 58.6,174.6 66,174.6 66,172.9 58.6,172.9 58.6,168.6 
		66.9,168.6 66.9,166.9 	"/>
	<path class="st0" d="M80.2,179h-3v-10.4h3c3.2,0,5.4,2.1,5.4,5.2C85.6,176.9,83.4,179,80.2,179 M80.2,166.9h-4.8v13.8h4.8
		c4.2,0,7.3-2.9,7.3-6.9v0C87.5,169.8,84.4,166.9,80.2,166.9"/>
	<polygon class="st0" points="96.2,166.9 96.2,180.7 106.4,180.7 106.4,179 98.1,179 98.1,174.6 105.4,174.6 105.4,172.9 
		98.1,172.9 98.1,168.6 106.3,168.6 106.3,166.9 	"/>
	<path class="st0" d="M116.6,168.6h4c2.1,0,3.3,0.9,3.3,2.5v0c0,1.6-1.3,2.6-3.3,2.6h-4V168.6z M125.7,171.1L125.7,171.1
		c0-1.1-0.4-2.1-1.1-2.8c-0.9-0.9-2.3-1.4-3.9-1.4h-5.9v13.8h1.8v-5.2h3.6l3.9,5.2l0,0.1h2.2l-4.2-5.6
		C124.4,174.7,125.7,173.2,125.7,171.1"/>
	<path class="st0" d="M140.7,169.1l2.8,6.3h-5.7L140.7,169.1z M140,166.8l-6.2,13.7l-0.1,0.2h1.9l1.6-3.6h7.1l1.6,3.6h2l-6.3-13.9
		H140z"/>
	<polygon class="st0" points="153.1,166.9 153.1,168.6 157.6,168.6 157.6,180.7 159.4,180.7 159.4,168.6 164,168.6 164,166.9 	"/>
	<rect x="172.2" y="166.9" class="st0" width="1.8" height="13.8"/>
	<path class="st0" d="M189.9,179.3c-2.9,0-5.2-2.3-5.2-5.4v0c0-3.1,2.2-5.4,5.1-5.4c2.9,0,5.2,2.3,5.2,5.4v0
		C195,176.9,192.8,179.3,189.9,179.3 M189.9,166.7c-4,0-7,3.1-7,7.1v0c0,4,3,7.1,7,7.1c4,0,7-3.1,7-7.1v0
		C196.9,169.8,193.9,166.7,189.9,166.7"/>
	<polygon class="st0" points="215.6,166.9 215.6,177.5 207.4,167 207.3,166.9 205.7,166.9 205.7,180.7 207.5,180.7 207.5,170 
		215.9,180.7 215.9,180.7 217.4,180.7 217.4,166.9 	"/>
	<path class="st1" d="M177.5,48.8L131.1,2.4c0,0-3.1-3.1-6.2,0L78.5,48.8c0,0-3.1,3.1,0,6.2l33.8,33.8c0.3-0.1,0.5-0.3,0.7-0.4
		c6.1-3.8,7.1-22.2,7.1-30.9h-4.8c-0.3-1-0.5-2.1-0.5-3.3c0-1.2,0.2-2.3,0.5-3.3h4.7c-1.2-9.1-5-13.7-5.6-14.5
		c-0.8-1-1.2-1.5-0.4-2.6c0.8-1,2.1-2.9,9.7-3.4c0.6,0,1.1-0.5,1.1-1.2v-2.5c0-0.2-0.1-0.3-0.3-0.3h-5.1c-0.2,0-0.4-0.2-0.4-0.4
		v-5.5c0-0.2,0.2-0.4,0.4-0.4h5.1c0.2,0,0.3-0.1,0.3-0.3V15c0-0.3,0.3-0.6,0.6-0.6h2.6h2.6c0.3,0,0.6,0.3,0.6,0.6v4.8
		c0,0.2,0.1,0.3,0.3,0.3h5.1c0.2,0,0.4,0.2,0.4,0.4V26c0,0.2-0.2,0.4-0.4,0.4h-5.1c-0.2,0-0.3,0.1-0.3,0.3v2.5
		c0,0.6,0.5,1.1,1.1,1.2c7.5,0.5,8.8,2.4,9.7,3.4c0.9,1.1,0.4,1.6-0.4,2.6c-0.6,0.8-4.4,5.5-5.6,14.5h4.7c0.3,1,0.5,2.1,0.5,3.3
		c0,1.2-0.2,2.3-0.5,3.3h-4.8c0,8.7,1,27.1,7.1,30.9c0.2,0.1,0.5,0.3,0.7,0.4L177.5,55C177.5,55,180.6,51.9,177.5,48.8"/>
	<path class="st2" d="M124.8,19.7V15c0-0.3,0.3-0.6,0.6-0.6h2.6h2.6c0.3,0,0.6,0.3,0.6,0.6v4.8c0,0.2,0.1,0.3,0.3,0.3h0.9l5.1-5.1
		L128,5.5l-9.4,9.4l5.1,5.1h0.8C124.7,20,124.8,19.9,124.8,19.7"/>
	<path class="st2" d="M124.8,29.2v-1.7l-3,3c0.6-0.1,1.2-0.1,1.9-0.2C124.3,30.3,124.8,29.8,124.8,29.2"/>
	<path class="st2" d="M132.2,30.4c0.7,0.1,1.4,0.1,2,0.2l-3.1-3.1v1.7C131.1,29.8,131.6,30.3,132.2,30.4"/>
	<path class="st2" d="M136.7,72l0.7-0.7l-0.9-0.9C136.6,71,136.7,71.5,136.7,72"/>
	<path class="st2" d="M118.6,71.3l0.6,0.6c0.1-0.5,0.1-0.9,0.2-1.4L118.6,71.3z"/>
	<path class="st2" d="M141.9,33.8c0.9,1.1,0.4,1.6-0.4,2.6c-0.1,0.2-0.3,0.4-0.6,0.9l5.9,5.9l9.4-9.4l-9.4-9.4l-7.5,7.5
		C140.9,32.5,141.5,33.2,141.9,33.8"/>
	<path class="st2" d="M139,50.9h1.6c0.3,1,0.5,2.1,0.5,3.3c0,0.7-0.1,1.3-0.2,1.9l5.8,5.8l9.4-9.4l-9.4-9.4L139,50.9z"/>
	
		<rect x="140.1" y="64.7" transform="matrix(-0.7071 0.7071 -0.7071 -0.7071 301.0263 17.9543)" class="st2" width="13.3" height="13.3"/>
	<path class="st2" d="M114.4,36.4c-0.8-1-1.2-1.5-0.4-2.6c0.4-0.5,1-1.3,2.6-2l-7.4-7.4l-9.4,9.4l9.4,9.4l5.9-5.9
		C114.8,36.8,114.5,36.5,114.4,36.4"/>
	<path class="st2" d="M114.8,54.2c0-1.2,0.2-2.3,0.5-3.3h1.7l-7.8-7.8l-9.4,9.4l9.4,9.4l5.8-5.8C114.9,55.5,114.8,54.9,114.8,54.2"
		/>
	
		<rect x="102.6" y="64.7" transform="matrix(-0.7071 -0.7071 0.7071 -0.7071 136.0019 198.9633)" class="st2" width="13.3" height="13.3"/>
	
		<rect x="83.8" y="45.9" transform="matrix(-0.7071 -0.7071 0.7071 -0.7071 117.2046 153.5888)" class="st2" width="13.3" height="13.3"/>
	
		<rect x="158.9" y="45.9" transform="matrix(0.7071 -0.7071 0.7071 0.7071 11.3572 132.4651)" class="st2" width="13.3" height="13.3"/>
</g>
</svg>
